PathFileType	4	(X/Y/Z)	pose_F01_0-74.trc
DataRate	CameraRate	NumFrames	NumMarkers	Units	OrigDataRate	OrigDataStartFrame	OrigNumFrames
30	30	7	21	m	30	21	74
Frame#	Time	CHip			RHip			RKnee			RAnkle			RBigToe			RSmallToe			RHeel			LHip			LKnee			LAnkle			LBigToe			LSmallToe			LHeel			Neck			Nose			RShoulder			RElbow			RWrist			LShoulder			LElbow			LWrist			
		X1	Y1	Z1	X2	Y2	Z2	X3	Y3	Z3	X4	Y4	Z4	X5	Y5	Z5	X6	Y6	Z6	X7	Y7	Z7	X8	Y8	Z8	X9	Y9	Z9	X10	Y10	Z10	X11	Y11	Z11	X12	Y12	Z12	X13	Y13	Z13	X14	Y14	Z14	X15	Y15	Z15	X16	Y16	Z16	X17	Y17	Z17	X18	Y18	Z18	X19	Y19	Z19	X20	Y20	Z20	X21	Y21	Z21	
21	0.7	-0.20043630729145165	1.8343448646201153	-0.6136350405820794	-0.21437737156090833	1.8326602877903935	-0.5556343408985221	-0.23568996868515932	1.721160817828959	-0.5603163035697899	-0.2244888295286436	1.567608203881345	-0.5890640500835063	-0.24264769511504852	1.5460580895465732	-0.6377870476963055	-0.24439237972043457	1.5367095976086949	-0.630823515575567	-0.2186146596009567	1.5813509442153366	-0.5935532268689709	-0.18818352311811698	1.8369391659085357	-0.6809238455950362	-0.17739049760334105	1.7179070008849007	-0.6685348038865675	-0.1691996720963736	1.592387204850824	-0.6730938933478394	-0.1928105906167661	1.5603566028885079	-0.6877413830936523	-0.17675498569809706	1.5654850298303673	-0.7124943913242064	-0.1629722852061936	1.582067460913572	-0.6612790729965585	-0.19186335381245342	1.9855120336357712	-0.6341334844620523	-0.21022089253964815	2.048201814540144	-0.6531512663150476	-1.6616742584991764	1.889436363545748	1.0445989153485231	-0.2168633570380643	1.902275786843096	-0.4958895195726823	-0.23517640281516997	1.9411715869113846	-0.5485454832377874	-0.17792015949723985	1.9897451691485906	-0.7173418261212501	-0.18603131366435469	1.915693270450577	-0.7422326780849031	-0.22810699072062765	1.9368527117447392	-0.6346246512143264
22	0.7333333333333333	-0.2099261022274161	1.8368524383762772	-0.5993234904360182	-0.21784943279573366	1.8345585438171284	-0.5305729063508875	-0.23568996868515932	1.721160817828959	-0.5603163035697899	-0.2244888295286436	1.567608203881345	-0.5890640500835063	-0.24264769511504852	1.5460580895465732	-0.6377870476963055	-0.24439237972043457	1.5367095976086949	-0.630823515575567	-0.2186146596009567	1.5813509442153366	-0.5935532268689709	-0.1952802546665767	1.8382947979849709	-0.6569773363109968	-0.18240780361573075	1.7121186404731996	-0.6586575890975179	-0.16698854101935917	1.5924121947086918	-0.6753191269290294	-0.19384848297150734	1.558760423105384	-0.6826142555344462	-0.17915220902946805	1.563443461355727	-0.7096397587486638	-0.15890335205190403	1.5811145395564292	-0.6651965861236775	-0.20030292722906687	1.9847197991128755	-0.6250595776511877	-0.21554429796112354	2.049593516162845	-0.6433713846675022	-1.6600970847582228	1.892549977638562	1.0429193341912328	-0.22080724867260035	1.9002529159226624	-0.4910712796193773	-0.23398494556901026	1.9499014129205952	-0.5264029053488444	-0.18895470795350475	1.9898996487715872	-0.7056379019829183	-0.19753094398914017	1.9157448805799688	-0.7223491859120309	-0.23686316061504897	1.9365375225815966	-0.6151340390412207
23	0.7666666666666667	-0.21230243135815013	1.8329145483839593	-0.5755483258608437	-0.22224052127083938	1.8307760374906838	-0.5168468720224118	-0.23568996868515932	1.721160817828959	-0.5603163035697899	-0.2244888295286436	1.567608203881345	-0.5890640500835063	-0.24264769511504852	1.5460580895465732	-0.6377870476963055	-0.24439237972043457	1.5367095976086949	-0.630823515575567	-0.2186146596009567	1.5813509442153366	-0.5935532268689709	-0.20481285180144038	1.8320708595072683	-0.6384915986142021	-0.18843414517194076	1.7077668409748679	-0.6474358624975758	-0.1700920981169977	1.5893787229691059	-0.6759907648585934	-0.19137781945131585	1.558642953351359	-0.6808667790725258	-0.17897320349997808	1.5620873877637964	-0.7098162898306513	-0.15877331555838026	1.5794221524125964	-0.6658819377896045	-0.20804356210438726	1.984180476787941	-0.6126085985592598	-0.21630175787370134	2.048712730157272	-0.626328484811142	-1.6680444671378225	1.8926933339596945	1.0584580180203575	-0.22593545899648296	1.8959066978002304	-0.4635222350801672	-0.240222938212104	1.9455399228190968	-0.5110897892996081	-0.19925533445622057	1.9868833916393758	-0.6910981621798156	-0.20753858679687742	1.911362329381507	-0.7041398712347666	-0.24288763482682274	1.9350569279281078	-0.5879090141495026
24	0.8	-0.22477779885566598	1.8299848489646175	-0.5528678076253726	-0.2314699803921786	1.8305165236787537	-0.4930912099895306	-0.23568996868515932	1.721160817828959	-0.5603163035697899	-0.2244888295286436	1.567608203881345	-0.5890640500835063	-0.24264769511504852	1.5460580895465732	-0.6377870476963055	-0.24439237972043457	1.5367095976086949	-0.630823515575567	-0.2186146596009567	1.5813509442153366	-0.5935532268689709	-0.21598460301723574	1.8326035564063234	-0.6179800989229375	-0.20276124355694516	1.706969267310841	-0.6281539980972431	-0.17112364744543332	1.590655594112282	-0.6710516952636751	-0.19215453626856402	1.5582332534465322	-0.6841588146767665	-0.17881456198587545	1.5645021161138255	-0.7101864118763899	-0.1602886699621803	1.5793271436268579	-0.6641534934394157	-0.2152530182421347	1.9815079341638848	-0.5803606099100183	-0.22307737676277206	2.048649931469416	-0.6118844245418281	-1.7327627868052484	1.8909643858642076	1.1636730846951826	-0.2310580502782056	1.899464842627385	-0.4448568300576549	-0.25623957684506843	1.9374308928285282	-0.4911545947639523	-0.20171659419252175	1.9854265089083218	-0.6686333347581149	-0.20989269433005403	1.905443391033987	-0.6809124633979482	-0.24705877831239353	1.9210969037515209	-0.5726458694299612
25	0.8333333333333334	-0.23238148406698325	1.8287501185237556	-0.514041584157889	-0.24047373722540138	1.829502383121177	-0.4606536561318636	-0.23568996868515932	1.721160817828959	-0.5603163035697899	-0.2244888295286436	1.567608203881345	-0.5890640500835063	-0.24264769511504852	1.5460580895465732	-0.6377870476963055	-0.24439237972043457	1.5367095976086949	-0.630823515575567	-0.2186146596009567	1.5813509442153366	-0.5935532268689709	-0.2230832675091599	1.8290878669942388	-0.5847316786765231	-0.2155954620318903	1.7074009152681788	-0.5934094000686794	-0.1772705101785251	1.5931818269096163	-0.665327138492698	-0.19190006739961749	1.5597976948999548	-0.684777846315387	-0.18072919137867144	1.5657062035390807	-0.7085439192341932	-0.1663776948317806	1.5847100807698478	-0.6588572093027213	-0.22049774643021017	1.980156808010116	-0.5696323162520718	-0.22838636460330938	2.0475224738548126	-0.6020113920254258	-1.768685361057149	1.8903492416184993	1.2239530762795072	-0.2390466942996232	1.8988019764562274	-0.4038609357054401	-0.2642208584660484	1.93713858110674	-0.45639115223848625	-0.20848472291823297	1.9827353146393785	-0.6528949568052277	-0.21643648691811834	1.9008496041734044	-0.6533282406105718	-0.24759552327445272	1.934191633817602	-0.5403726453811506
26	0.8666666666666667	-0.236226888421851	1.8341638528064537	-0.4924159322209017	-0.24278617359345045	1.830428311384452	-0.42668057403142834	-0.23568996868515932	1.721160817828959	-0.5603163035697899	-0.2244888295286436	1.567608203881345	-0.5890640500835063	-0.24264769511504852	1.5460580895465732	-0.6377870476963055	-0.24439237972043457	1.5367095976086949	-0.630823515575567	-0.2186146596009567	1.5813509442153366	-0.5935532268689709	-0.2265450262358164	1.8324233831514758	-0.5509703509654966	-0.2155954620318903	1.7074009152681788	-0.5934094000686794	-0.19427841585067585	1.5968287159376462	-0.643846988664185	-0.20985388758657514	1.5581749556961892	-0.6575841463800418	-0.19763197675551894	1.5631819368149862	-0.6871471188350433	-0.1844842624865319	1.5888800880924792	-0.6401388393978761	-1.6464557237277622	1.8890338277701484	1.0146946370551417	-0.22886978235727376	2.0473527646242604	-0.5850889167781059	-0.23819140467682678	1.9791349658127027	-0.45161641166906397	-0.25265816184407397	1.9061770119025214	-0.3805472147611978	-0.2633803401139555	1.9357310878738374	-0.44470516995134557	-0.21252579668022523	1.9835487013055586	-0.6280995366041171	-0.21601660332192793	1.8998996715646885	-0.6327908839193135	-0.25241739083510994	1.9286953564888145	-0.5440214847080341
27	0.9	-0.23676709985781758	1.831000159654	-0.4688929475554831	-0.24323926822420638	1.829644425272631	-0.40295866105688816	-0.23568996868515932	1.721160817828959	-0.5603163035697899	-0.2244888295286436	1.567608203881345	-0.5890640500835063	-0.24264769511504852	1.5460580895465732	-0.6377870476963055	-0.24439237972043457	1.5367095976086949	-0.630823515575567	-0.2186146596009567	1.5813509442153366	-0.5935532268689709	-0.23025493477896697	1.8331551022161165	-0.5376087187217722	-0.2155954620318903	1.7074009152681788	-0.5934094000686794	-0.21627666166240034	1.5941645523900814	-0.616862509547069	-0.23021826253457997	1.5569008211632052	-0.619952453662403	-0.2206457737593899	1.5636896029046121	-0.6557255165140213	-0.21276590769256737	1.5843985001531642	-0.6147382577701647	-1.673166228728865	1.8884159012240622	1.057583466363326	-0.23231165144575444	2.0461982335266895	-0.5691169129956386	-0.24177741020411753	1.9792048276571013	-0.4211567132309874	-0.2544355813760754	1.9049328882755419	-0.3465731258951759	-0.2572348677193967	1.9243977404640142	-0.41671873352396344	-0.21395966037160805	1.9830404145501654	-0.6140997876600126	-0.21761548436760214	1.8994785100462006	-0.618448546568193	-0.253599445033598	1.9236722782597087	-0.5138750228013752
